#!OML:ASF C:\Vicon Data\Big\jianyuan-13\jianyuan\Session 1\Capture.male.ASF
:FULLY-SPECIFIED
:DEGREES
1
root -7.733500 17.281300 -23.999400 11.275367 3.856921 1.772334
lowerback -8.015940 -1.463400 -2.879140 
upperback 0.025670 -1.724850 0.359364 
thorax 4.620980 -0.935150 1.784840 
lowerneck -6.755950 -1.483900 3.294740 
upperneck 2.017540 -2.189880 -2.334670 
head 1.727890 -1.129390 -1.380300 
rclavicle 0.000000 0.000000 
rhumerus -42.040500 -22.684400 -75.797600 
rradius 26.898100 
rwrist 32.113700 
rhand -19.285100 -15.198700 
rfingers 0.000000 
rthumb 7.029960 -45.062000 
lclavicle 0.000000 0.000000 
lhumerus -17.615300 16.923200 89.618400 
lradius 31.930800 
lwrist -43.806900 
lhand -29.057400 -1.118740 
lfingers 0.000000 
lthumb -2.407180 28.847400 
rfemur -32.742700 7.492590 16.467700 
rtibia 23.769400 
rfoot -11.918700 -3.208610 
rtoes -19.085100 
lfemur -7.604230 -8.015680 -21.145300 
ltibia 10.943100 
lfoot -13.745800 4.728370 
ltoes -27.223300 
2
root -7.746839 17.273850 -23.870727 11.153283 4.119508 1.908759
lowerback -8.066841 -1.437143 -2.782570 
upperback -0.072575 -1.695145 0.180966 
thorax 4.536885 -0.916192 1.548923 
lowerneck -6.498795 -1.541072 3.217444 
upperneck 2.140430 -2.254397 -2.095531 
head 1.721649 -1.152424 -1.289485 
rclavicle 0.000000 0.000000 
rhumerus -42.560679 -23.371647 -75.400702 
rradius 26.558219 
rwrist 33.495548 
rhand -19.238602 -15.032071 
rfingers 0.000000 
rthumb 7.074858 -44.893755 
lclavicle 0.000000 0.000000 
lhumerus -17.654532 16.747284 89.409668 
lradius 31.953383 
lwrist -44.465946 
lhand -29.168465 -1.114226 
lfingers 0.000000 
lthumb -2.514395 28.850683 
rfemur -32.215287 7.394798 16.483283 
rtibia 24.199146 
rfoot -11.197706 -3.035348 
rtoes -20.454299 
lfemur -7.546356 -8.280764 -21.292699 
ltibia 11.993007 
lfoot -14.244295 4.716268 
ltoes -27.762573 
3
root -7.757150 17.269144 -23.806354 11.204252 4.238424 2.002320
lowerback -8.177949 -1.432678 -2.885041 
upperback -0.158276 -1.680710 0.171881 
thorax 4.511891 -0.911607 1.597374 
lowerneck -6.469939 -1.642031 3.278980 
upperneck 2.253955 -2.383019 -2.295785 
head 1.747743 -1.219490 -1.369788 
rclavicle 0.000000 0.000000 
rhumerus -42.740238 -23.425989 -75.310989 
rradius 26.507462 
rwrist 33.248769 
rhand -19.406993 -15.139187 
rfingers 0.000000 
rthumb 6.912325 -45.006346 
lclavicle 0.000000 0.000000 
lhumerus -17.680301 16.697065 89.432736 
lradius 31.934021 
lwrist -44.543836 
lhand -29.302509 -1.047577 
lfingers 0.000000 
lthumb -2.643852 28.915789 
rfemur -32.103433 7.234489 16.508134 
rtibia 24.398496 
rfoot -10.820720 -2.981679 
rtoes -21.537513 
lfemur -7.667716 -8.142401 -21.367397 
ltibia 12.532204 
lfoot -14.294917 4.499682 
ltoes -28.179737 
4
root -7.765650 17.267800 -23.743334 11.166659 4.403207 2.066320
lowerback -8.213175 -1.460084 -2.888882 
upperback -0.206739 -1.717530 0.149012 
thorax 4.482351 -0.929717 1.571086 
lowerneck -6.416728 -1.700678 3.281748 
upperneck 2.326810 -2.454005 -2.399469 
head 1.758991 -1.256290 -1.405938 
rclavicle 0.000000 0.000000 
rhumerus -42.906487 -23.508863 -75.232903 
rradius 26.492065 
rwrist 33.261888 
rhand -19.273780 -15.239709 
rfingers 0.000000 
rthumb 7.040887 -45.102544 
lclavicle 0.000000 0.000000 
lhumerus -17.714272 16.507942 89.424462 
lradius 31.973120 
lwrist -44.295327 
lhand -29.318654 -0.920697 
lfingers 0.000000 
lthumb -2.659437 29.042457 
rfemur -31.908105 7.163764 16.536637 
rtibia 24.559325 
rfoot -10.473613 -3.113829 
rtoes -22.655926 
lfemur -7.706228 -8.176718 -21.423371 
ltibia 13.098882 
lfoot -14.457499 4.522664 
ltoes -29.797033 
5
root -7.772092 17.269567 -23.681970 11.072207 4.569674 2.084119
lowerback -8.178613 -1.474346 -2.842226 
upperback -0.243424 -1.743443 0.149115 
thorax 4.424556 -0.940891 1.543159 
lowerneck -6.259691 -1.751339 3.126399 
upperneck 2.292861 -2.506578 -2.334634 
head 1.719938 -1.281583 -1.356254 
rclavicle 0.000000 0.000000 
rhumerus -43.095315 -23.723199 -75.014758 
rradius 26.450977 
rwrist 33.440891 
rhand -19.060450 -15.126421 
rfingers 0.000000 
rthumb 7.246815 -44.982292 
lclavicle 0.000000 0.000000 
lhumerus -17.773186 16.354773 89.451423 
lradius 32.039461 
lwrist -44.041757 
lhand -29.319865 -0.808133 
lfingers 0.000000 
lthumb -2.660616 29.154994 
rfemur -31.669515 7.130307 16.601528 
rtibia 24.676942 
rfoot -10.170558 -3.264119 
rtoes -22.852500 
lfemur -7.728958 -8.112573 -21.439227 
ltibia 13.737014 
lfoot -14.571328 4.417573 
ltoes -30.711171 
6
root -7.779968 17.271307 -23.620587 10.996913 4.693210 2.048201
lowerback -8.180829 -1.452358 -2.777951 
upperback -0.272349 -1.721994 0.165759 
thorax 4.393144 -0.928748 1.527322 
lowerneck -6.104084 -1.821197 3.075891 
upperneck 2.230918 -2.588809 -2.420308 
head 1.669179 -1.324680 -1.373532 
rclavicle 0.000000 0.000000 
rhumerus -43.231484 -23.889739 -74.858435 
rradius 26.404266 
rwrist 33.379045 
rhand -19.014389 -15.094082 
rfingers 0.000000 
rthumb 7.291298 -44.948448 
lclavicle 0.000000 0.000000 
lhumerus -17.795120 16.362294 89.474964 
lradius 32.042213 
lwrist -44.093568 
lhand -29.310955 -0.791474 
lfingers 0.000000 
lthumb -2.652003 29.171758 
rfemur -31.458728 7.088474 16.741155 
rtibia 24.740152 
rfoot -9.938232 -3.334858 
rtoes -22.037942 
lfemur -7.787704 -8.091772 -21.370616 
ltibia 14.439001 
lfoot -14.823468 4.245973 
ltoes -30.419433 
7
root -7.787914 17.273746 -23.560074 10.948137 4.802942 2.010723
lowerback -8.212546 -1.421748 -2.677428 
upperback -0.295608 -1.690319 0.150828 
thorax 4.381686 -0.910908 1.458799 
lowerneck -6.024149 -1.887112 3.134320 
upperneck 2.220928 -2.674217 -2.551873 
head 1.647505 -1.369468 -1.426783 
rclavicle 0.000000 0.000000 
rhumerus -43.339591 -24.027515 -74.797258 
rradius 26.352237 
rwrist 33.374056 
rhand -18.985943 -15.107752 
rfingers 0.000000 
rthumb 7.318751 -44.961137 
lclavicle 0.000000 0.000000 
lhumerus -17.818105 16.500975 89.435431 
lradius 32.027901 
lwrist -44.335686 
lhand -29.258253 -0.901355 
lfingers 0.000000 
lthumb -2.601117 29.062509 
rfemur -31.263146 7.062937 16.878196 
rtibia 24.753459 
rfoot -9.731128 -3.417949 
rtoes -20.913430 
lfemur -7.920222 -8.200755 -21.286458 
ltibia 15.217284 
lfoot -15.162580 4.148036 
ltoes -29.753523 
8
root -7.794698 17.277823 -23.500372 10.903062 4.916056 1.954180
lowerback -8.239976 -1.393480 -2.540693 
upperback -0.321767 -1.665471 0.136695 
thorax 4.364204 -0.895671 1.370090 
lowerneck -5.992829 -1.928073 3.109954 
upperneck 2.268336 -2.726082 -2.511224 
head 1.656205 -1.393874 -1.411154 
rclavicle 0.000000 0.000000 
rhumerus -43.461643 -24.192513 -74.707337 
rradius 26.291287 
rwrist 33.607354 
rhand -18.915041 -15.093541 
rfingers 0.000000 
rthumb 7.387170 -44.944584 
lclavicle 0.000000 0.000000 
lhumerus -17.894971 16.604975 89.393505 
lradius 32.067864 
lwrist -44.447982 
lhand -29.168188 -0.996824 
lfingers 0.000000 
lthumb -2.514165 28.968088 
rfemur -31.050495 7.109225 17.003931 
rtibia 24.737811 
rfoot -9.525399 -3.560155 
rtoes -19.859461 
lfemur -8.145274 -8.219931 -21.200376 
ltibia 16.113638 
lfoot -15.342039 4.046971 
ltoes -29.662494 
9
root -7.802023 17.281244 -23.439898 10.853305 5.014726 1.810120
lowerback -8.280225 -1.368504 -2.372575 
upperback -0.343794 -1.650056 0.193746 
thorax 4.359961 -0.885099 1.336146 
lowerneck -5.951251 -1.948451 3.010021 
upperneck 2.298829 -2.744531 -2.491466 
head 1.659192 -1.403060 -1.387594 
rclavicle 0.000000 0.000000 
rhumerus -43.523179 -24.261318 -74.614739 
rradius 26.229636 
rwrist 33.735173 
rhand -18.972991 -15.233481 
rfingers 0.000000 
rthumb 7.331221 -45.086507 
lclavicle 0.000000 0.000000 
lhumerus -17.983367 16.708794 89.412494 
lradius 32.113894 
lwrist -44.472789 
lhand -29.058504 -0.975691 
lfingers 0.000000 
lthumb -2.408212 28.990440 
rfemur -30.824349 7.175846 17.220695 
rtibia 24.711453 
rfoot -9.324301 -3.628501 
rtoes -18.948481 
lfemur -8.437236 -8.089232 -21.042854 
ltibia 17.138698 
lfoot -15.385815 3.947740 
ltoes -30.453537 
10
root -7.807872 17.283923 -23.380547 10.797531 5.134823 1.668850
lowerback -8.310772 -1.375793 -2.165160 
upperback -0.346329 -1.681010 0.256854 
thorax 4.371689 -0.896739 1.280734 
lowerneck -5.875849 -1.966886 2.941024 
upperneck 2.229255 -2.759171 -2.627660 
head 1.622234 -1.414637 -1.417084 
rclavicle 0.000000 0.000000 
rhumerus -43.506959 -24.315079 -74.551228 
rradius 26.133981 
rwrist 33.870733 
rhand -19.023764 -15.321899 
rfingers 0.000000 
rthumb 7.282206 -45.176508 
lclavicle 0.000000 0.000000 
lhumerus -18.057780 17.109643 89.404753 
lradius 32.109050 
lwrist -44.762241 
lhand -28.980209 -1.036894 
lfingers 0.000000 
lthumb -2.332601 28.930118 
rfemur -30.594345 7.102236 17.468932 
rtibia 24.689883 
rfoot -9.044005 -3.516193 
rtoes -18.572501 
lfemur -8.785955 -7.981400 -20.908955 
ltibia 18.252224 
lfoot -15.353809 3.933286 
ltoes -31.446818 
11
root -7.814915 17.288134 -23.320130 10.777042 5.257981 1.564971
lowerback -8.406185 -1.325654 -1.975131 
upperback -0.340951 -1.629338 0.229600 
thorax 4.422488 -0.867644 1.149786 
lowerneck -5.874345 -2.038710 3.059494 
upperneck 2.207423 -2.861014 -2.726924 
head 1.609697 -1.466837 -1.472111 
rclavicle 0.000000 0.000000 
rhumerus -43.538316 -24.544134 -74.528809 
rradius 26.062604 
rwrist 33.804672 
rhand -18.860412 -15.215829 
rfingers 0.000000 
rthumb 7.439924 -45.065005 
lclavicle 0.000000 0.000000 
lhumerus -18.097705 17.226256 89.330282 
lradius 32.065528 
lwrist -44.869279 
lhand -28.986234 -1.040003 
lfingers 0.000000 
lthumb -2.338445 28.926934 
rfemur -30.383061 7.075945 17.655751 
rtibia 24.698520 
rfoot -8.800495 -3.310406 
rtoes -18.466752 
lfemur -9.182131 -7.823790 -20.793614 
ltibia 19.408823 
lfoot -15.174130 3.772081 
ltoes -31.905107 
